PathFileType	4	(X/Y/Z)	T1_P2_NoVision_Movement_3_0-732.trc
DataRate	CameraRate	NumFrames	NumMarkers	Units	OrigDataRate	OrigDataStartFrame	OrigNumFrames
60	60	4	27	m	60	457	732
Frame#	Time	RHip			RKnee			RAnkle			RBigToe			RSmallToe			RHeel			LHip			LKnee			LAnkle			LBigToe			LSmallToe			LHeel			Neck			Head			Nose			RShoulder			RElbow			RWrist			RThumb			RIndex			RPinky			LShoulder			LElbow			LWrist			LThumb			LIndex			LPinky		
		X1	Y1	Z1	X2	Y2	Z2	X3	Y3	Z3	X4	Y4	Z4	X5	Y5	Z5	X6	Y6	Z6	X7	Y7	Z7	X8	Y8	Z8	X9	Y9	Z9	X10	Y10	Z10	X11	Y11	Z11	X12	Y12	Z12	X13	Y13	Z13	X14	Y14	Z14	X15	Y15	Z15	X16	Y16	Z16	X17	Y17	Z17	X18	Y18	Z18	X19	Y19	Z19	X20	Y20	Z20	X21	Y21	Z21	X22	Y22	Z22	X23	Y23	Z23	X24	Y24	Z24	X25	Y25	Z25	X26	Y26	Z26	X27	Y27	Z27
458	7.633333333333334	463.0048974088161	3621.173740091901	540.6511739636908	847.9352925900179	3656.001805924938	540.1858402332172	1244.2194966208456	3720.3854077870674	628.9013867248962	1332.006958234809	3631.67118624885	608.1681051675572	1307.9269862443996	3638.914756685206	549.2804689266137	1279.2828858467215	3704.41737685184	629.5034798771701	463.7615707307279	3504.7488243191656	733.2071579442171	877.5870644528823	3548.0921951551773	747.8105204697513	1234.5811655137895	3589.5194411982066	724.028797542669	1329.1575157481586	3556.778641766604	680.26035669718	1278.4327588527772	3463.9182073308184	703.9271501490365	1276.6508721077057	3614.7142680443867	719.0462519366538	-122.7949948035338	3533.953590314971	639.8266506810804	-373.96092460047356	3503.868487989423	625.5215158450005	-234.81236124690315	3434.2188332029855	586.7710262723854	-35.25014810521095	3672.881903872999	537.0611913623193	207.64426497749804	3709.9608944718357	454.2341906124641	453.44999714561357	3652.2158675003166	411.35833637181133	601.4812109211767	3565.9790757554833	398.042533905525	621.2281028661993	3620.167825011873	388.2066275081253	587.0769650668664	3598.05140348858	326.2607430891187	-17.447328918887475	3523.145245191563	813.4497049138937	244.35538994409242	3432.7471212898517	833.5792149467414	485.28842321717286	3430.308966298463	829.6413316645949	598.7495992310069	3428.0410154189776	810.9710442716403	605.0901243219253	3415.794450586806	821.8398107293066	599.1414712403209	3370.662899671711	843.9915307788842
459	7.65	463.06384517487106	3621.2417251870265	540.421120486112	846.961485502255	3654.340078536401	538.7184272114275	1243.7294318214576	3718.1902010336325	628.0581618943215	1329.9242387051352	3631.4539796302315	608.2346919526234	1306.085172516414	3637.3057799400513	549.0379651809741	1280.5167074453589	3705.3700741032762	633.1461303719914	464.4112824597301	3505.5858518202986	733.4601801225057	877.08795152288	3553.7977112744966	749.503646318183	1234.6792120377575	3589.6294286831553	723.9303267199439	1326.7289274839704	3552.7099079134086	676.8532679279785	1278.5566964921582	3463.796707476483	703.8023210789145	1277.0470466730064	3613.091357252114	719.8670151064026	-122.76497894044701	3534.000007376835	639.8674513599965	-373.97078474869477	3504.2462848525292	624.7698367630372	-234.83128034920193	3434.3067204665595	586.8072773556652	-35.15592700600596	3672.4083663128195	536.9480745521145	208.70519944236412	3711.3002632690113	454.5715625045884	453.66283736745146	3653.3435974823215	411.76777316668023	604.528196382086	3573.0166519303325	399.4639340796168	622.6674266870352	3629.5305903802846	388.63812000939964	587.6145161278281	3597.681641438519	322.8598444501999	-18.304199520929448	3526.30426099453	814.4054089534761	242.89402810936394	3431.9633290571355	833.1919543549664	485.24545330820973	3430.404319305962	829.7148816026616	598.8249889443048	3427.574270175727	812.0987536864708	605.1228493164592	3415.7674491700564	821.862023885836	599.5164707527788	3371.7898777243263	845.3092444097239
460	7.666666666666667	464.5460249708826	3622.286711506474	540.6250298101121	847.2489295158563	3654.838612845394	538.8391612202842	1243.0823721746883	3715.5046548107293	626.4799087688937	1327.2011377051538	3629.246532559319	607.0203931548689	1302.6606841757077	3633.3276165904085	546.74468381879	1279.272091716001	3703.441702227918	635.3155878662078	465.5882882185539	3506.5127208771287	733.7856723211099	877.0698441902354	3557.7128829875774	750.6828479823309	1234.851410361862	3589.9016598028566	723.4844239003857	1325.6866002648665	3552.108637919091	676.7170304434466	1279.3369937905832	3465.657547643794	705.4592634833856	1277.0537918970024	3612.2815155739027	720.263612183452	-122.77055854648566	3534.0337889093535	639.9016086859801	-373.97418982162213	3504.2040751300788	624.962865146322	-234.86685783304026	3434.329921271643	586.8230234763498	-35.15993855969182	3672.1300329338114	536.8877268377618	211.00896704434663	3713.3618088765934	455.13831820652683	453.81880010821465	3655.542862314688	412.5972395201584	604.2531292031854	3575.0711684042017	400.10364472015914	621.161845114135	3629.340271294285	388.2641024144725	587.7657113014982	3599.2696254147822	321.89250883425495	-19.032912350124384	3529.0672357327985	815.2258128398819	240.8657276728547	3431.8334317364775	833.0647548642067	485.34375767907767	3430.6116153945427	829.8162259086484	598.8154196541597	3427.0978443123586	813.1155320403377	605.1739498105486	3415.908031023376	821.9744723049841	599.5833491467747	3371.9123310620403	845.4053140152902
461	7.683333333333334	466.5109306049044	3623.737910750745	541.057390333831	847.6674048864489	3655.750282579067	539.2902986135714	1241.5257362115408	3712.587843110277	624.3670958864482	1325.2760268322672	3625.3801558990936	604.8656139445417	1298.4058328976846	3627.2603423052196	542.3657625297964	1275.3946748961414	3698.8684640316596	634.7095081215227	466.4395225402186	3507.106374328872	733.9725100032772	877.4161400395546	3558.7497649222737	751.0560235022186	1234.343646103511	3589.8812821323445	722.7101305546388	1326.6155146586764	3555.392252899306	680.0240450297906	1280.7184481639347	3469.785178886215	709.1512982942048	1276.1025410218956	3612.3882317746447	720.1038972145849	-122.80807521234307	3534.0924381218056	639.9421199976846	-373.9819374639179	3504.0855827913024	625.328858984153	-234.9088986893129	3434.278723669571	586.7954212385603	-35.21483490147473	3672.1001938391587	536.8947218726178	213.68746730601714	3715.808577790976	455.8844305551673	453.50328963125196	3657.8747573153955	413.52804033622533	601.3517014829514	3573.169021172486	399.95966914061194	617.6490127202198	3621.723703036041	386.61068666653034	586.785685595483	3601.3754913195685	322.68319483541114	-19.377297954325584	3530.4996690374346	815.6363831384953	239.27140942628535	3434.1298425352884	833.8538155953281	485.3614653485844	3430.7202224932917	829.8166375867279	598.841853055816	3427.0245744999343	813.0971410042393	605.2279283989093	3416.082749817152	822.0959609164327	599.457748136394	3371.2480250933045	844.9680215808028
